<svg width="240" height="54" viewBox="0 0 240 54" version="1.1" xmlns="http://www.w3.org/2000/svg" xmlns:xlink="http://www.w3.org/1999/xlink">
<title>Button1</title>
<desc>Created using Figma</desc>
<g id="Canvas" transform="translate(-301 -521)">
<g id="Button1">
<mask id="mask0_outline_ins">
<use xlink:href="#path0_fill" fill="white" transform="translate(301 521)"/>
</mask>
<g mask="url(#mask0_outline_ins)">
<use xlink:href="#path1_stroke_2x" transform="translate(301 521)" fill="#ABABAB"/>
</g>
</g>
</g>
<defs>
<path id="path0_fill" fill-rule="evenodd" d="M 0 27C 0 12.0883 12.0883 0 27 0L 213 0C 227.912 0 240 12.0883 240 27C 240 41.9117 227.912 54 213 54L 27 54C 12.0883 54 0 41.9117 0 27Z"/>
<path id="path1_stroke_2x" d="M 27 3L 213 3L 213 -3L 27 -3L 27 3ZM 213 51L 27 51L 27 57L 213 57L 213 51ZM 27 -3C 10.4315 -3 -3 10.4315 -3 27L 3 27C 3 13.7452 13.7452 3 27 3L 27 -3ZM 213 3C 226.255 3 237 13.7452 237 27L 243 27C 243 10.4315 229.569 -3 213 -3L 213 3ZM 237 27C 237 40.2548 226.255 51 213 51L 213 57C 229.569 57 243 43.5685 243 27L 237 27ZM 27 51C 13.7452 51 3 40.2548 3 27L -3 27C -3 43.5685 10.4315 57 27 57L 27 51Z"/>
</defs>
</svg>
