<svg width="1440" height="1224" viewBox="0 0 1440 1224" version="1.1" xmlns="http://www.w3.org/2000/svg" xmlns:xlink="http://www.w3.org/1999/xlink">
<title>triangles</title>
<desc>Created using Figma</desc>
<g id="Canvas" transform="translate(299 185)">
<g id="triangles">
<g id="Triangle10">
<use xlink:href="#path0_stroke" transform="matrix(0.927184 0.374607 -0.374607 0.927184 -384.301 406)" fill="#F2F2F2"/>
</g>
<g id="Triangle1">
<use xlink:href="#path1_stroke" transform="matrix(0.927184 0.374607 -0.374607 0.927184 -112.482 -253)" fill="#F2F2F2"/>
</g>
<g id="Triangle1">
<use xlink:href="#path2_stroke" transform="matrix(0.927184 0.374607 -0.374607 0.927184 -112.482 -253)" fill="#F2F2F2"/>
</g>
<g id="Triangle8">
<use xlink:href="#path3_stroke" transform="matrix(-0.882948 0.469472 -0.469472 -0.882948 12.5573 347.529)" fill="#F2F2F2"/>
</g>
<g id="Triangle7">
<use xlink:href="#path4_stroke" transform="matrix(-0.573576 -0.819152 0.819152 -0.573576 1113.09 825.324)" fill="#F2F2F2"/>
</g>
<g id="Triangle6">
<use xlink:href="#path3_stroke" transform="matrix(0.961262 -0.275637 0.275637 0.961262 635 587.384)" fill="#F2F2F2"/>
</g>
<g id="Triangle5">
<use xlink:href="#path5_stroke" transform="matrix(-0.829038 -0.559193 0.559193 -0.829038 1138.04 317.872)" fill="#F2F2F2"/>
</g>
<g id="Triangle4">
<use xlink:href="#path6_stroke" transform="matrix(-0.615662 0.788011 -0.788011 -0.615662 889.966 307.175)" fill="#F2F2F2"/>
</g>
<g id="Triangle3">
<use xlink:href="#path7_stroke" transform="matrix(-0.681998 0.731354 -0.731354 -0.681998 455.037 825.531)" fill="#F2F2F2"/>
</g>
<g id="Triangle2">
<use xlink:href="#path8_stroke" transform="matrix(0.927184 0.374607 -0.374607 0.927184 -323.028 64)" fill="#F2F2F2"/>
</g>
</g>
</g>
<defs>
<path id="path0_stroke" d="M 255.5 0L 256.14 -1.2573L 255.5 -1.5828L 254.86 -1.2573L 255.5 0ZM 511 130L 511 131.411L 511.64 128.743L 511 130ZM 0 130L -0.639724 128.743L 0 131.411L 0 130ZM 254.86 1.2573L 510.36 131.257L 511.64 128.743L 256.14 -1.2573L 254.86 1.2573ZM 511 128.589L 0 128.589L 0 131.411L 511 131.411L 511 128.589ZM 0.639724 131.257L 256.14 1.2573L 254.86 -1.2573L -0.639724 128.743L 0.639724 131.257Z"/>
<path id="path1_stroke" d="M 105 0L 106.405 0.129894L 103.708 -0.566135L 105 0ZM 79.9405 271L 79.4254 272.313L 81.1724 272.999L 81.3452 271.13L 79.9405 271ZM 0 239.645L -1.29211 239.079L -1.88086 240.423L -0.51511 240.958L 0 239.645ZM 103.595 -0.129894L 78.5358 270.87L 81.3452 271.13L 106.405 0.129894L 103.595 -0.129894ZM 80.4556 269.687L 0.51511 238.332L -0.51511 240.958L 79.4254 272.313L 80.4556 269.687ZM 1.29211 240.211L 106.292 0.566135L 103.708 -0.566135L -1.29211 239.079L 1.29211 240.211Z"/>
<path id="path2_stroke" d="M 105 0L 106.405 0.129894L 103.708 -0.566135L 105 0ZM 79.9405 271L 79.4254 272.313L 81.1724 272.999L 81.3452 271.13L 79.9405 271ZM 0 239.645L -1.29211 239.079L -1.88086 240.423L -0.51511 240.958L 0 239.645ZM 103.595 -0.129894L 78.5358 270.87L 81.3452 271.13L 106.405 0.129894L 103.595 -0.129894ZM 80.4556 269.687L 0.51511 238.332L -0.51511 240.958L 79.4254 272.313L 80.4556 269.687ZM 1.29211 240.211L 106.292 0.566135L 103.708 -0.566135L -1.29211 239.079L 1.29211 240.211Z"/>
<path id="path3_stroke" d="M 66 0L 67.1701 -0.788014L 66 -2.52541L 64.8299 -0.788014L 66 0ZM 132 98L 132 99.4107L 134.651 99.4107L 133.17 97.212L 132 98ZM 0 98L -1.17008 97.212L -2.65084 99.4107L 0 99.4107L 0 98ZM 64.8299 0.788014L 130.83 98.788L 133.17 97.212L 67.1701 -0.788014L 64.8299 0.788014ZM 132 96.5893L 0 96.5893L 0 99.4107L 132 99.4107L 132 96.5893ZM 1.17008 98.788L 67.1701 0.788014L 64.8299 -0.788014L -1.17008 97.212L 1.17008 98.788Z"/>
<path id="path4_stroke" d="M 212.651 259L 212.648 260.411L 213.336 260.412L 213.761 259.871L 212.651 259ZM 0 258.449L -0.744452 257.251L -4.92332 259.847L -0.00365277 259.86L 0 258.449ZM 416 0L 417.11 0.871156L 415.256 -1.19827L 416 0ZM 212.655 257.589L 0.00365277 257.039L -0.00365277 259.86L 212.648 260.411L 212.655 257.589ZM 0.744452 259.648L 416.744 1.19827L 415.256 -1.19827L -0.744452 257.251L 0.744452 259.648ZM 414.89 -0.871156L 211.542 258.129L 213.761 259.871L 417.11 0.871156L 414.89 -0.871156Z"/>
<path id="path5_stroke" d="M 0 125L -1.09727 124.113L -3.34518 126.895L 0.19662 126.397L 0 125ZM 221 93.8937L 221.197 95.2906L 224.483 94.828L 221.869 92.7827L 221 93.8937ZM 101.001 0L 101.87 -1.11101L 100.777 -1.96682L 99.9039 -0.886602L 101.001 0ZM 0.19662 126.397L 221.197 95.2906L 220.803 92.4968L -0.19662 123.603L 0.19662 126.397ZM 221.869 92.7827L 101.87 -1.11101L 100.132 1.11101L 220.131 95.0047L 221.869 92.7827ZM 99.9039 -0.886602L -1.09727 124.113L 1.09727 125.887L 102.098 0.886602L 99.9039 -0.886602Z"/>
<path id="path6_stroke" d="M 62.7377 0L 64.1449 -0.0987374L 63.978 -2.47746L 61.9736 -1.18582L 62.7377 0ZM 68 75L 67.3607 76.2575L 69.5816 77.3867L 69.4072 74.9013L 68 75ZM 0 40.4271L -0.764123 39.2413L -2.82854 40.5716L -0.639342 41.6846L 0 40.4271ZM 61.3305 0.0987374L 66.5928 75.0987L 69.4072 74.9013L 64.1449 -0.0987374L 61.3305 0.0987374ZM 68.6393 73.7425L 0.639342 39.1696L -0.639342 41.6846L 67.3607 76.2575L 68.6393 73.7425ZM 0.764123 41.6129L 63.5018 1.18582L 61.9736 -1.18582L -0.764123 39.2413L 0.764123 41.6129Z"/>
<path id="path7_stroke" d="M 286.427 23.443L 287.502 24.3567L 289.284 22.2613L 286.542 22.037L 286.427 23.443ZM 45.1523 307.231L 43.7566 307.436L 44.2095 310.517L 46.2271 308.144L 45.1523 307.231ZM 0 0L 0.115075 -1.40599L -1.65376 -1.55076L -1.3957 0.20512L 0 0ZM 285.352 22.5292L 44.0775 306.317L 46.2271 308.144L 287.502 24.3567L 285.352 22.5292ZM 46.548 307.025L 1.3957 -0.20512L -1.3957 0.20512L 43.7566 307.436L 46.548 307.025ZM -0.115075 1.40599L 286.312 24.849L 286.542 22.037L 0.115075 -1.40599L -0.115075 1.40599Z"/>
<path id="path8_stroke" d="M 63.0493 0L 64.4224 -0.323277L 63.9645 -2.26815L 62.2851 -1.18577L 63.0493 0ZM 80 72L 79.4851 73.3134L 81.9896 74.2953L 81.3732 71.6767L 80 72ZM 0 40.6336L -0.764199 39.4478L -3.08091 40.9409L -0.514939 41.947L 0 40.6336ZM 61.6761 0.323277L 78.6268 72.3233L 81.3732 71.6767L 64.4224 -0.323277L 61.6761 0.323277ZM 80.5149 70.6866L 0.514939 39.3203L -0.514939 41.947L 79.4851 73.3134L 80.5149 70.6866ZM 0.764199 41.8194L 63.8135 1.18577L 62.2851 -1.18577L -0.764199 39.4478L 0.764199 41.8194Z"/>
</defs>
</svg>
